<svg id="Layer_1" data-name="Layer 1" xmlns="http://www.w3.org/2000/svg" viewBox="0 0 1780 500"><defs><style>.cls-1{font-size:218.35px;letter-spacing:-0.04em;}.cls-1,.cls-6{fill:#0194d9;}.cls-1,.cls-11{font-family:Montserrat-ExtraBold, Montserrat;font-weight:700;}.cls-2{letter-spacing:-0.03em;}.cls-3{letter-spacing:-0.08em;}.cls-4{letter-spacing:-0.09em;}.cls-5{fill:#00adf0;}.cls-7{fill:#007ec4;}.cls-8{fill:#00befb;}.cls-9{fill:#0755a2;}.cls-10{fill:#52d0ed;}.cls-11{font-size:61.35px;fill:#f5f5f5;letter-spacing:0.01em;}.cls-12{letter-spacing:0.01em;}</style></defs><title>Logo-Navbar-Darkmode</title><text class="cls-1" transform="translate(500.5 328.57)">Mu<tspan class="cls-2" x="343.67" y="0">n</tspan><tspan x="489.31" y="0">d</tspan><tspan class="cls-3" x="633.85" y="0">o</tspan><tspan class="cls-4" x="762.68" y="0">W</tspan><tspan x="1001.33" y="0">eb</tspan></text><path class="cls-5" d="M309.34,83.37c11.52,2.37,42.21,8.55,45.79,10.18C372.78,97.71,386,108,395.25,123.34a228.6,228.6,0,0,1,24.34,55.37c1.39,4.8,3.48,9.4,3.87,14.47,1.06,1.63,1,3.62,1.62,5.36.65,3.84,1.34,7.66,1.93,11.51.23,1.51.26,3.2-1.13,4.17-1.56,1.11-2.74-.18-4-1a260.1,260.1,0,0,0-34.24-19.88c-1.27-.87-3-.71-4.14-1.93l-23.31-9.3c-1.8-1.38-4.12-1.18-6.1-2h0c-2.54-1.54-5.57-1.7-8.22-2.95l-1.88-.15c-1.65-.91-3.72-.58-5.26-1.8l-23.25-5.36a15.4,15.4,0,0,0-6.45-.92,4.1,4.1,0,0,1-2.8-.88l-1.92-.27c-2.33-1.05-5-.53-7.32-1.7l-3.9-.32c-3.91-2-8.29-.8-12.35-1.83C246.9,159.5,212.91,160.11,179,161c-11.11.27-22.19,1.76-33.29,2.65-2.34.19-4.71.21-7.07.31-4.44.92-9.13,0-13.46,1.81l-2,.27a8,8,0,0,1-3.75.83c-2.2.22-4.53-.56-6.59.82-4.87-.27-9.38,1.76-14.13,2.28a11.28,11.28,0,0,1-3.56.93,40.72,40.72,0,0,0-5.06.23,5.66,5.66,0,0,1-1.4.31c-2.84.07-5.68.19-8.31,1.48L69.2,175.14c-2,1.16-4.4.61-6.38,1.72l-1.77.18c-7.42,1.1-14.61,4.88-22.38,1.93C19.2,176,6.81,164.57,0,146.5V121.07c4.11-7.73,7.83-15.59,15-21.32,8.31-6.63,17.89-9.66,28-11.11,4.32-.62,8.35-2.79,12.84-2.25,7.49-1.71,15.07-2.84,22.66-3.9,2.3-.4,4.81.64,6.92-1l3.8-.22c3-1.36,6.5-.06,9.45-1.73l3-.32a5,5,0,0,1,3.08-.82,67,67,0,0,0,10.3-.89c30.78-3.4,61.66-3.68,92.58-3.66,22,0,43.84,2,65.7,4"/><path class="cls-6" d="M287.93,182l2,.31c1.78,1,3.72.81,5.65.83a8.15,8.15,0,0,1,3.6.79l1,.3c2.07,1.47,4.55.61,6.78,1.16,3.2.45,6.52.23,9.49,1.83a1.4,1.4,0,0,0,.88.1c2.37.83,5.07.41,7.27,1.89,14.54,3.41,28.63,8.22,42.6,13.44,1.75,1,3.65,1.63,5.35,2.68a185.52,185.52,0,0,1,36.73,19.84c3.72,2.53,7.34,5.22,10.95,7.91,6.54,4.86,10.41,10.94,10.28,19.55-.18,10.79-.26,21.56-2.18,32.23-1.41,7.73-3.19,15.4-4.06,23.23a5.21,5.21,0,0,1-.75,2.34,21.26,21.26,0,0,1-2.27,9c-1.4,1.88-1.08,4.28-1.9,6.33-3.37,13.72-6,14.68-17.11,6.76a251,251,0,0,0-69.27-34.44c-2.68-.87-5.17-2.62-8.21-2.19-1.33-.84-3.06-.7-4.28-1.78-3.21,0-5.83-2.45-9.1-2.15-3.58-1.71-7.49-1.64-11.31-2.07a5.35,5.35,0,0,1-2.94-1l.08-.18c-2-.95-4.4-.45-6.34-1.66l-4.86-.38c-2.62-1.43-5.65-.84-8.39-1.69-24.37-3.27-48.85-3.83-73.39-3.53-16.93.2-33.74,2-50.5,3.86-12.36,1.4-24.51,4.66-37,5-21.67.56-44.12-14.31-50.88-34.92-.66-2-1.76-3.89-1.87-6.08-1.49-2.6-.88-5.63-1.72-8.36-.46-6.51.58-12.86,2-19.18.64-1.07,1.1-2.24,1.72-3.32C67.65,208,80,191.11,91.41,189.13c3.89-2.12,8.67-.89,12.48-3.32,2.12-.23,4.28,0,6.36-.58,2.26-.24,4.66.41,6.75-1l2.94-.2c3.68-1.23,7.68-.39,11.34-1.77l19.3-2.17c8.94-2.29,18.18-.84,27.19-2.1,4.87-.67,9.79.08,14.62-.89,16.08.1,32.17-.13,48.23.4,12,.4,23.89,1.78,35.83,2.73C280.2,181.3,284.26,180.39,287.93,182Z"/><path class="cls-7" d="M257.38,398.93l-1.94-.17c-3.64-1.42-7.66-.45-11.3-1.82l-3-.3c-2.33-1.53-4.95-.62-7.44-.88-18.12-.79-36.22-1-54.32.45-4.89.39-9.74-.46-14.53-1.51-14.28-4.34-22.91-14.39-28.07-27.88a20,20,0,0,1-.64-4.5,45,45,0,0,1,0-22.62c3.19-14.72,11.47-25.34,25.39-31.32A45,45,0,0,1,179.84,305c8.93,0,17.71-2.29,26.68-1.93a238.26,238.26,0,0,1,34.63,0l-.05.14c5.78,1,11.64.88,17.47,1.1a234.83,234.83,0,0,1,27.32,3.89c3.84.13,7.25,2.38,11.14,2.2,2.23,1.35,5,.7,7.25,1.84l1.88.21c1.81,1.5,4.22,1,6.24,1.84,29.06,7.69,56,20,80.33,37.69.7,1.08,2.14,1.19,2.9,2.18,6.11,6.26,7.13,12.95,2.9,20.61-14,25.25-32.1,47.14-53.59,66.29-4.63,4.14-6.68,3.6-10.36-1.49-4.8-6.65-10.11-12.86-17-17.47-.9-.9-2.23-1.12-3.13-2-8.13-6.72-17.87-10.37-27.56-14-2-.73-3.88-1.93-6.05-2.22-1.76-1.09-3.84-1-5.73-1.56-5-.36-9.5-3.11-14.62-2.55A4.63,4.63,0,0,1,257.38,398.93Z"/><path class="cls-8" d="M284.91,25.25c10.16,1.9,18.46,7.81,27,13a246.16,246.16,0,0,1,45.75,36.46A16.44,16.44,0,0,0,359,76.25a2.79,2.79,0,0,1,.86,4c-.91,1.48-2.4.82-3.67.45-9.35-2.78-18.89-4.71-28.44-6.63-2-.92-4.41-.4-6.33-1.7-4.55.33-8.65-1.95-13.09-2.27-2.47-1.54-5.23-.67-7.85-1-4.15-.81-8.52-.15-12.52-1.92L285.1,67c-4.38-1.41-9.14,0-13.47-1.8-38.1-5.17-76.4-4.52-114.7-4-5.11.34-10.21.85-15.35.86-1.79,0-3.68-.32-5.29.88-7.87-.15-15.53,1.87-23.35,2.26-4.37,1.57-9.07.56-13.48,1.79-4.38-.5-8.54,1.28-12.87,1.26-3.74.86-7.75,0-11.34,1.81l-3,.29a10.62,10.62,0,0,1-5.36.85,22.82,22.82,0,0,0-5.91.91,4.37,4.37,0,0,1-1,.22c-2.26,1.31-5,.73-7.31,1.75l-19.09,3.4c-2.08.69-4.33.71-6.33,1.67l-2.75,0c-1.31-.91-3-.87-4.34-1.64C17,76,15.1,73.11,13.32,70.17c-1-1.67-1.35-3.35-.12-5.06C17.62,56.77,26,52.77,33,47.29c3.86-3,8.56-5.29,12.37-8.29,12.48-9.84,27.4-9.7,41.87-11.68,3.75-1.08,7.82-.08,11.47-1.78l2-.28a9.36,9.36,0,0,1,4.72-.83c2.53-.28,5.2.67,7.6-.85l4-.34c4.67-1.65,9.7-.48,14.42-1.77,18.93-.89,37.86-2.2,56.8-2.54,14.54-.26,29.1.71,43.66,1.1,8.46.23,16.84,1.86,25.33,1.47,4.05,1.32,8.46.08,12.46,1.72l4,.39c2.08,1.39,4.43.6,6.66.82A9.23,9.23,0,0,1,284.91,25.25Z"/><path class="cls-9" d="M248.32,414.88c4.37,1.27,8.88,1,13.17,2.2,4.07,1.13,8.23,1.49,12.17,3.13h0c1.71.85,3.51,1,5.28,1.84,10.62,5,21.58,8,30.56,15.54a86,86,0,0,1,8.61,8.46c5.49,6.12,4.78,12.86-2.12,17.06-12.44,7.56-25,15-38.62,20.27-8.58,3.3-16.92,7.28-26,9.2-1.64.89-3.56,1-5.22,1.81-8.16,1.89-16.19,4.36-24.91,5.33.3-.86.32-1.45.61-1.69,6.14-4.92,6.46-8.28-2-13.91-4.13-2.76-9-4.3-13.36-6.81C180.07,462,185.26,433,205.4,418.11c9.09-6.7,19.64-6.93,29.61-4.88a49.52,49.52,0,0,0,9.4.86A14.53,14.53,0,0,1,248.32,414.88Z"/><path class="cls-10" d="M253.87,14.12c1.9.18,2.33-2.75.44-3a3.89,3.89,0,0,0-1,0h0c-5.69-1.19-11-3.89-16.94-4.11a1.43,1.43,0,0,1-.54-.13c-1.77-.81-3.71-.93-5.55-1.41-5.79-1.53-25-4.45-27.51-5.16-.36-.1-4.33-.35-5.44-.35H169.91c-2.72,0-17.5,1.15-18.89,1.5a22.27,22.27,0,0,1-3.42.6c-5.21.46-10.45.83-15.34,2.31-2.66.81-8.31,2.12-9.7,2.5a3.6,3.6,0,0,1-.73.13c-5.51.51-10.68,2.42-15.89,4.11a1.1,1.1,0,0,1-.26.06C99.44,12,94.1,15.73,87.86,16.5c-.7.35-1,.9-.49,1.56a1.48,1.48,0,0,0,1.94.51,1.83,1.83,0,0,1,.56-.13s82.86-7.11,95.87-7.52C202.14,10.41,249.1,13.65,253.87,14.12Z"/><text class="cls-11" transform="translate(505.62 417.61)">C<tspan class="cls-12" x="46.14" y="0">L</tspan><tspan x="83.99" y="0">UBE DE BENEFÍCIOS</tspan></text></svg>