<?xml version="1.0" standalone="no"?>
<!DOCTYPE svg PUBLIC "-//W3C//DTD SVG 20010904//EN"
 "http://www.w3.org/TR/2001/REC-SVG-20010904/DTD/svg10.dtd">
<svg version="1.0" xmlns="http://www.w3.org/2000/svg"
 width="281.000000pt" height="281.000000pt" viewBox="0 0 281.000000 281.000000"
 preserveAspectRatio="xMidYMid meet">
<metadata>
Created by potrace 1.14, written by Peter Selinger 2001-2017
</metadata>
<g transform="translate(0.000000,281.000000) scale(0.100000,-0.100000)"
fill="#000000" stroke="none">
<path d="M960 2770 c-58 -10 -143 -33 -190 -49 l-85 -31 65 6 c36 4 74 8 85
10 62 12 245 19 509 19 174 -1 287 3 270 7 -134 39 -208 50 -374 53 -144 4
-194 1 -280 -15z"/>
<path d="M1108 2685 c-2 -1 -52 -6 -113 -9 -60 -4 -144 -12 -185 -17 -41 -5
-93 -12 -115 -15 -22 -2 -51 -7 -65 -9 -14 -3 -41 -7 -60 -10 -67 -11 -271
-151 -283 -194 -3 -12 3 -31 15 -46 24 -31 49 -32 183 -6 55 11 120 22 145 26
25 3 56 8 70 10 68 10 153 20 285 31 153 14 687 5 715 -11 3 -1 36 -6 75 -10
38 -4 72 -8 75 -10 3 -1 28 -6 55 -9 28 -4 66 -11 85 -16 19 -5 51 -11 70 -14
19 -3 59 -12 87 -20 37 -10 55 -11 60 -4 12 20 -155 159 -287 240 -95 58 -106
62 -227 73 -37 4 -81 9 -98 12 -30 5 -482 13 -487 8z"/>
<path d="M1138 2385 c-2 -1 -59 -5 -128 -9 -69 -4 -137 -8 -150 -10 -14 -3
-51 -7 -84 -11 -32 -4 -68 -8 -80 -10 -11 -2 -39 -6 -61 -9 -22 -4 -78 -13
-125 -22 -47 -9 -96 -18 -110 -21 -34 -6 -100 -45 -132 -80 -83 -87 -79 -251
8 -337 77 -75 151 -88 324 -53 143 29 172 34 395 62 143 18 467 24 635 12 142
-10 215 -21 370 -54 165 -34 390 -125 505 -202 22 -15 48 -30 58 -34 17 -6 18
-3 13 33 -15 107 -63 252 -128 385 -93 189 -168 239 -428 288 -14 3 -63 12
-110 21 -47 9 -106 18 -130 21 -25 2 -65 7 -90 9 -136 16 -182 18 -357 21
-106 1 -194 1 -195 0z"/>
<path d="M1367 1814 c-1 -1 -68 -5 -148 -8 -81 -4 -155 -8 -165 -10 -11 -2
-55 -7 -99 -11 -44 -4 -82 -8 -85 -10 -3 -2 -27 -6 -55 -9 -121 -16 -177 -50
-220 -136 -83 -164 -22 -343 144 -421 49 -23 141 -29 216 -15 22 4 58 9 80 12
22 3 51 7 65 10 138 22 491 22 640 -2 268 -42 474 -116 660 -238 47 -31 91
-56 98 -56 49 -1 123 427 90 522 -20 56 -195 170 -365 237 -65 25 -217 70
-263 77 -19 3 -51 9 -70 14 -19 5 -62 12 -95 16 -33 3 -68 8 -78 10 -26 5
-346 21 -350 18z"/>
<path d="M1398 1115 c-2 -1 -57 -5 -123 -9 -137 -7 -156 -11 -206 -42 -158
-99 -141 -369 28 -445 44 -20 57 -21 296 -19 81 1 151 -1 155 -4 5 -3 30 -7
58 -10 100 -11 213 -44 294 -87 59 -31 137 -98 164 -141 9 -14 24 -25 33 -24
22 4 156 139 218 222 82 108 118 174 117 213 -2 42 -9 51 -91 104 -120 80
-268 145 -413 183 -69 18 -73 18 -138 29 -25 4 -52 9 -60 10 -58 11 -324 27
-332 20z"/>
<path d="M1392 496 c-71 -25 -133 -110 -134 -186 0 -44 25 -106 54 -131 13
-11 46 -31 75 -44 29 -14 59 -35 67 -47 15 -20 14 -24 -7 -46 l-22 -24 30 7
c190 44 310 88 442 163 106 60 117 83 68 143 -60 73 -188 132 -345 158 -98 17
-191 20 -228 7z"/>
</g>
</svg>
